<svg version="1.2" baseProfile="tiny-ps" xmlns="http://www.w3.org/2000/svg" viewBox="0 0 70 34" width="70" height="34">
	<title>logo-blue-svg</title>
	<style>
		tspan { white-space:pre }
		.shp0 { fill: #1fb6ff } 
	</style>
	<g id="Layer">
		<path id="svg_1" fill-rule="evenodd" class="shp0" d="M59.1 21.42C59.6 21.42 60 21.82 60 22.22C60 22.72 59.6 23.12 59.1 23.12C39.2 21.92 19.1 26.22 9.1 31.62C7.8 32.32 6.5 31.92 6.2 31.32C5.8 30.52 6 29.02 8.6 27.82C13.3 25.52 34 19.42 59.1 21.42ZM65.3 13.82C66.2 12.82 67.5 14.02 66.4 14.62C64.9 16.52 61.9 18.22 60.2 18.12C58.7 18.02 58.5 16.12 58.6 15.02C58.7 15.02 58.7 14.92 58.7 14.82C57.1 16.32 54.7 17.82 52.7 17.92C50.9 18.02 49.4 17.22 49.3 15.02C49.3 14.42 49.3 13.72 49.5 13.02C49 12.92 48.5 12.72 48.1 12.42C46.4 15.22 43.9 18.22 41.5 18.32C39.7 18.42 39 16.92 39.1 15.02C39.2 14.22 39.3 13.32 39.5 12.52C38.2 13.62 36.7 14.42 35.8 13.42C34.7 12.12 36.6 9.02 36.1 9.02C35.5 9.02 33.3 11.72 32.4 18.42C32.2 19.82 29.3 20.02 29.6 18.22C29.6 18.02 29.7 17.92 29.7 17.82C28.8 19.02 27.6 19.92 26.2 20.32C24.3 20.52 23.9 18.42 23.9 18.42C23.9 18.42 22.5 21.02 20.8 21.22C19.3 21.52 18.4 20.42 18.2 18.62C17.9 15.32 20.4 8.32 24.4 7.92C25.1 7.82 25.8 8.12 26.2 8.62C26.5 8.12 27 7.72 27.6 7.52C27.9 7.42 28.3 7.52 28.6 7.72C28.9 7.92 29 8.22 29 8.62C29.1 9.42 28.4 11.12 27.9 11.92C27.7 12.12 26.5 16.52 27.5 16.42C28.7 16.32 30.2 13.92 30.6 13.12C30.8 11.32 31.3 9.52 31.9 7.82C32.8 6.02 34.6 6.42 34.7 7.42C34.6 7.92 34.5 8.42 34.3 8.92C34.3 8.92 36 6.32 37.4 6.12C38.3 6.02 39.2 6.72 39.3 7.62C39.5 8.82 38 10.82 38.4 11.12C38.7 11.22 39.7 10.12 40.4 9.32C40.7 8.62 41 8.02 41.3 7.42C41.8 6.22 43.2 5.62 44.4 6.12C44.9 6.32 45 6.92 44.8 7.42C44.5 8.12 44.2 8.62 43.7 9.12C42.9 11.62 42 14.92 42.8 15.02C43.6 15.12 46 12.82 46.6 10.92C46.3 10.22 46.1 9.32 46.2 8.42C46.5 6.72 47.5 5.92 48.4 5.92C49.7 5.72 50.4 6.72 50.1 8.42C49.8 9.22 49.6 10.02 49.2 10.82C49.5 11.02 49.9 11.12 50.2 11.22C51.6 8.02 54.3 5.82 56.5 5.82C57.2 5.72 57.8 5.92 58.3 6.42C58.8 6.92 59.1 7.52 59.1 8.22C59.1 12.22 54.3 13.62 52.6 13.62C52.5 14.62 52.7 15.42 53.8 15.42C55.8 15.42 58.1 13.62 59.5 12.22C60.4 9.02 62 6.02 64.2 3.62C66.9 0.92 69.5 1.82 69.5 4.72C69.5 7.92 64.7 12.02 62.2 13.62C62.2 13.62 61.7 15.12 62.2 15.52C62.7 15.92 64.2 15.02 65.3 13.82ZM66.9 4.82C65.6 4.82 62.6 11.02 62.6 11.02C62.6 11.02 67.2 7.12 67.2 5.22C67.2 5.02 67.1 4.82 66.9 4.82ZM55.7 8.72C55 8.72 54.1 9.92 53.2 11.22C54.8 11.22 56.2 10.42 56.2 9.32C56.2 9.22 56.2 9.12 56.1 8.92C56 8.72 55.9 8.72 55.7 8.72ZM24.7 11.62C24.8 11.02 24.8 10.72 24.4 10.72C22.3 10.72 20.3 17.92 21.6 17.82C22.6 17.82 24.6 12.72 24.7 11.62ZM7.8 13.02C5.8 13.02 3.6 22.32 3.8 26.22C4 28.42 0.6 28.92 0.5 26.12C0.4 17.42 4.3 7.82 8.1 8.02C10.8 8.22 10.4 11.92 10.4 11.92C10.4 11.92 13 5.32 16.2 5.32C17.1 5.32 18 6.12 18.2 7.62C18.7 11.22 15.1 16.12 16.2 21.22C16.6 22.92 13.2 23.62 12.8 21.12C12.2 17.22 15.2 11.02 13.8 11.02C11.9 11.02 9.9 20.12 10.3 23.02C10.5 24.72 7.3 25.52 7 22.62C6.7 19.72 9.1 13.02 7.8 13.02Z" />
	</g>
</svg>